<svg xmlns:xlink="http://www.w3.org/1999/xlink" version="1.1" style="font-family:'lucida grande', 'lucida sans unicode', arial, helvetica, sans-serif;font-size:12px;" xmlns="http://www.w3.org/2000/svg" width="600" height="400"><desc>Created with Highcharts 4.2.7</desc><defs><clipPath id="highcharts-90"><rect x="1" y="1" width="507" height="191"></rect></clipPath></defs><rect x="81" y="10" width="509" height="193" fill="#ffffff"></rect><path fill="rgb(255, 255, 255)" fill-opacity=" .5" d="M 81 203.5 L 590 203.5 590 155.5 81 155.5"></path><path fill="rgb(255, 255, 255)" fill-opacity=" .5" d="M 81 107.5 L 590 107.5 590 58.5 81 58.5"></path><g class="highcharts-grid"></g><g class="highcharts-grid"><path fill="none" d="M 81 203.5 L 590 203.5" stroke="#C0C0C0" stroke-width="1" opacity="1"></path><path fill="none" d="M 81 155.5 L 590 155.5" stroke="#C0C0C0" stroke-width="1" opacity="1"></path><path fill="none" d="M 81 107.5 L 590 107.5" stroke="#C0C0C0" stroke-width="1" opacity="1"></path><path fill="none" d="M 81 58.5 L 590 58.5" stroke="#C0C0C0" stroke-width="1" opacity="1"></path><path fill="none" d="M 81 9.5 L 590 9.5" stroke="#C0C0C0" stroke-width="1" opacity="1"></path></g><rect x="81" y="10" width="509" height="193" stroke="#026FC1" stroke-width="2" fill="none"></rect><g class="highcharts-axis"><path fill="none" d="M 165.5 203 L 165.5 213" stroke="#C0D0E0" stroke-width="1" opacity="1"></path><path fill="none" d="M 250.5 203 L 250.5 213" stroke="#C0D0E0" stroke-width="1" opacity="1"></path><path fill="none" d="M 335.5 203 L 335.5 213" stroke="#C0D0E0" stroke-width="1" opacity="1"></path><path fill="none" d="M 419.5 203 L 419.5 213" stroke="#C0D0E0" stroke-width="1" opacity="1"></path><path fill="none" d="M 504.5 203 L 504.5 213" stroke="#C0D0E0" stroke-width="1" opacity="1"></path><path fill="none" d="M 590.5 203 L 590.5 213" stroke="#C0D0E0" stroke-width="1" opacity="1"></path><path fill="none" d="M 80.5 203 L 80.5 213" stroke="#C0D0E0" stroke-width="1" opacity="1"></path><path fill="none" d="M 81 203.5 L 590 203.5" stroke="#C0D0E0" stroke-width="1"></path></g><g class="highcharts-axis"><path fill="none" d="M 81 203.5 L 71 203.5" stroke="#C0D0E0" stroke-width="1" opacity="1"></path><path fill="none" d="M 81 155.5 L 71 155.5" stroke="#C0D0E0" stroke-width="1" opacity="1"></path><path fill="none" d="M 81 107.5 L 71 107.5" stroke="#C0D0E0" stroke-width="1" opacity="1"></path><path fill="none" d="M 81 58.5 L 71 58.5" stroke="#C0D0E0" stroke-width="1" opacity="1"></path><path fill="none" d="M 81 9.5 L 71 9.5" stroke="#C0D0E0" stroke-width="1" opacity="1"></path><text x="33.766666412353516" text-anchor="middle" transform="translate(0,0) rotate(270 33.766666412353516 106.5)" class=" highcharts-yaxis-title" style="color:#000000;font-size:20px;font-family:'arial', sans-serif;text-transform:none;font-weight:normal;fill:#000000;" y="106.5"><tspan>Analysis time (s)</tspan></text></g><g class="highcharts-series-group"><g class="highcharts-series highcharts-series-0" transform="translate(81,10) scale(1 1)" clip-path="url(#highcharts-90)"><rect x="21.5" y="190.5" width="41" height="3" stroke="#FFFFFF" stroke-width="1" fill="#50B432" rx="0" ry="0"></rect><rect x="106.5" y="26.5" width="41" height="167" stroke="#FFFFFF" stroke-width="1" fill="#ED561B" rx="0" ry="0"></rect><rect x="191.5" y="172.5" width="41" height="21" stroke="#FFFFFF" stroke-width="1" fill="#DDDF00" rx="0" ry="0"></rect><rect x="276.5" y="177.5" width="41" height="16" stroke="#FFFFFF" stroke-width="1" fill="#24CBE5" rx="0" ry="0"></rect><rect x="360.5" y="89.5" width="41" height="104" stroke="#FFFFFF" stroke-width="1" fill="#64E572" rx="0" ry="0"></rect><rect x="445.5" y="179.5" width="41" height="14" stroke="#FFFFFF" stroke-width="1" fill="#FF9655" rx="0" ry="0"></rect></g><g class="highcharts-markers highcharts-series-0" transform="translate(81,10) scale(1 1)" clip-path="none"></g><g class="highcharts-series highcharts-series-1" transform="translate(81,10) scale(1 1)" clip-path="url(#highcharts-90)"></g><g class="highcharts-markers highcharts-series-1" transform="translate(81,10) scale(1 1)" clip-path="none"></g></g><g class="highcharts-data-labels highcharts-series-0" transform="translate(81,10) scale(1 1)" opacity="1"><g style="cursor:pointer;" transform="translate(12,158)"><text x="5" style="font-size: 20px; font-weight: bold; font-family: 'arial', sans-serif; color: rgb(0, 0, 0); fill: rgb(0, 0, 0); text-rendering: geometricprecision; text-shadow: none;" y="23"><tspan>0.344</tspan></text></g><g style="cursor:pointer;" transform="translate(97,27)"><text x="5" style="font-size: 20px; font-weight: bold; font-family: 'arial', sans-serif; color: rgb(0, 0, 0); fill: rgb(0, 0, 0); text-rendering: geometricprecision; text-shadow: none;" y="23"><tspan>17.35</tspan></text></g><g style="cursor:pointer;" transform="translate(188,140)"><text x="5" style="font-size: 20px; font-weight: bold; font-family: 'arial', sans-serif; color: rgb(0, 0, 0); fill: rgb(0, 0, 0); text-rendering: geometricprecision; text-shadow: none;" y="23"><tspan>2.21</tspan></text></g><g style="cursor:pointer;" transform="translate(273,145)"><text x="5" style="font-size:20px;font-weight:bold;font-family:'arial', sans-serif;color:#000000;text-shadow:none;fill:#000000;text-rendering:geometricprecision;" y="23"><tspan>1.67</tspan></text></g><g style="cursor:pointer;" transform="translate(345,57)"><text x="5" style="font-size: 20px; font-weight: bold; font-family: 'arial', sans-serif; color: rgb(0, 0, 0); fill: rgb(0, 0, 0); text-rendering: geometricprecision; text-shadow: none;" y="23"><tspan>10.768</tspan></text></g><g style="cursor:pointer;" transform="translate(442,147)"><text x="5" style="font-size:20px;font-weight:bold;font-family:'arial', sans-serif;color:#000000;text-shadow:none;fill:#000000;text-rendering:geometricprecision;" y="23"><tspan>1.43</tspan></text></g></g><g class="highcharts-data-labels highcharts-series-1" transform="translate(81,10) scale(1 1)" opacity="1"></g><g class="highcharts-legend" transform="translate(260,360)"><g><g><g class="highcharts-legend-item" transform="translate(8,3)"></g></g></g></g><g class="highcharts-axis-labels highcharts-xaxis-labels"><text x="127.65930735378595" style="color:#000000;cursor:default;font-size:20px;font-family:'arial', sans-serif;text-transform:none;font-weight:normal;fill:#000000;width:400px;text-overflow:ellipsis;" text-anchor="end" transform="translate(0,0) rotate(-45 127.65930735378595 224)" y="224" opacity="1"><tspan>Dynamic analysis</tspan></text><text x="212.4926406871193" style="color:#000000;cursor:default;font-size:20px;font-family:'arial', sans-serif;text-transform:none;font-weight:normal;fill:#000000;width:400px;text-overflow:ellipsis;" text-anchor="end" transform="translate(0,0) rotate(-45 212.4926406871193 224)" y="224" opacity="1"><tspan>sysfilter</tspan></text><text x="297.3259740204526" style="color:#000000;cursor:default;font-size:20px;font-family:'arial', sans-serif;text-transform:none;font-weight:normal;fill:#000000;width:400px;text-overflow:ellipsis;" text-anchor="end" transform="translate(0,0) rotate(-45 297.3259740204526 224)" y="224" opacity="1"><tspan>Confine</tspan></text><text x="382.1593073537859" style="color:#000000;cursor:default;font-size:20px;font-family:'arial', sans-serif;text-transform:none;font-weight:normal;fill:#000000;width:400px;text-overflow:ellipsis;" text-anchor="end" transform="translate(0,0) rotate(-45 382.1593073537859 224)" y="224" opacity="1"><tspan>Sourcealyzer</tspan></text><text x="466.99264068711926" style="color:#000000;cursor:default;font-size:20px;font-family:'arial', sans-serif;text-transform:none;font-weight:normal;fill:#000000;width:400px;text-overflow:ellipsis;" text-anchor="end" transform="translate(0,0) rotate(-45 466.99264068711926 224)" y="224" opacity="1"><tspan>Binalyzer - syscalls</tspan></text><text x="551.8259740204527" style="color:#000000;cursor:default;font-size:20px;font-family:'arial', sans-serif;text-transform:none;font-weight:normal;fill:#000000;width:400px;text-overflow:ellipsis;" text-anchor="end" transform="translate(0,0) rotate(-45 551.8259740204527 224)" y="224" opacity="1"><tspan>Binalyzer - cfg</tspan></text></g><g class="highcharts-axis-labels highcharts-yaxis-labels"><text x="66" style="color:#000000;cursor:default;font-size:20px;font-family:'arial', sans-serif;text-transform:none;font-weight:normal;fill:#000000;width:188px;text-overflow:clip;" text-anchor="end" transform="translate(0,0)" y="209" opacity="1"><tspan>0</tspan></text><text x="66" style="color:#000000;cursor:default;font-size:20px;font-family:'arial', sans-serif;text-transform:none;font-weight:normal;fill:#000000;width:188px;text-overflow:clip;" text-anchor="end" transform="translate(0,0)" y="161" opacity="1"><tspan>5</tspan></text><text x="66" style="color:#000000;cursor:default;font-size:20px;font-family:'arial', sans-serif;text-transform:none;font-weight:normal;fill:#000000;width:188px;text-overflow:clip;" text-anchor="end" transform="translate(0,0)" y="113" opacity="1"><tspan>10</tspan></text><text x="66" style="color:#000000;cursor:default;font-size:20px;font-family:'arial', sans-serif;text-transform:none;font-weight:normal;fill:#000000;width:188px;text-overflow:clip;" text-anchor="end" transform="translate(0,0)" y="64" opacity="1"><tspan>15</tspan></text><text x="66" style="color:#000000;cursor:default;font-size:20px;font-family:'arial', sans-serif;text-transform:none;font-weight:normal;fill:#000000;width:188px;text-overflow:clip;" text-anchor="end" transform="translate(0,0)" y="16" opacity="1"><tspan>20</tspan></text></g><g class="highcharts-tooltip" display="none" style="cursor:default;padding:0;pointer-events:none;white-space:nowrap;" transform="translate(0,0)"><path fill="none" d="M 3.5 0.5 L 13.5 0.5 C 16.5 0.5 16.5 0.5 16.5 3.5 L 16.5 13.5 C 16.5 16.5 16.5 16.5 13.5 16.5 L 3.5 16.5 C 0.5 16.5 0.5 16.5 0.5 13.5 L 0.5 3.5 C 0.5 0.5 0.5 0.5 3.5 0.5"  stroke="black" stroke-opacity="0.049999999999999996" stroke-width="5" transform="translate(1, 1)"></path><path fill="none" d="M 3.5 0.5 L 13.5 0.5 C 16.5 0.5 16.5 0.5 16.5 3.5 L 16.5 13.5 C 16.5 16.5 16.5 16.5 13.5 16.5 L 3.5 16.5 C 0.5 16.5 0.5 16.5 0.5 13.5 L 0.5 3.5 C 0.5 0.5 0.5 0.5 3.5 0.5"  stroke="black" stroke-opacity="0.09999999999999999" stroke-width="3" transform="translate(1, 1)"></path><path fill="none" d="M 3.5 0.5 L 13.5 0.5 C 16.5 0.5 16.5 0.5 16.5 3.5 L 16.5 13.5 C 16.5 16.5 16.5 16.5 13.5 16.5 L 3.5 16.5 C 0.5 16.5 0.5 16.5 0.5 13.5 L 0.5 3.5 C 0.5 0.5 0.5 0.5 3.5 0.5"  stroke="black" stroke-opacity="0.15" stroke-width="1" transform="translate(1, 1)"></path><path fill="rgb(255, 255, 255)" fill-opacity=" 0.85" d="M 3.5 0.5 L 13.5 0.5 C 16.5 0.5 16.5 0.5 16.5 3.5 L 16.5 13.5 C 16.5 16.5 16.5 16.5 13.5 16.5 L 3.5 16.5 C 0.5 16.5 0.5 16.5 0.5 13.5 L 0.5 3.5 C 0.5 0.5 0.5 0.5 3.5 0.5"></path><text x="8" style="font-size:12px;color:#000000;fill:#000000;" y="20"></text></g></svg>
