<svg xmlns:xlink="http://www.w3.org/1999/xlink" version="1.1" style="font-family:'lucida grande', 'lucida sans unicode', arial, helvetica, sans-serif;font-size:12px;" xmlns="http://www.w3.org/2000/svg" width="600" height="400"><desc>Created with Highcharts 4.2.7</desc><defs><clipPath id="highcharts-6"><rect x="1" y="1" width="547" height="233"></rect></clipPath></defs><rect x="41" y="10" width="549" height="235" fill="#ffffff"></rect><path fill="rgb(255, 255, 255)" fill-opacity=" .5" d="M 41 245.5 L 590 245.5 590 167.5 41 167.5"></path><path fill="rgb(255, 255, 255)" fill-opacity=" .5" d="M 41 88.5 L 590 88.5 590 10.5 41 10.5"></path><g class="highcharts-grid"></g><g class="highcharts-grid"><path fill="none" d="M 41 245.5 L 590 245.5" stroke="#C0C0C0" stroke-width="1" opacity="1"></path><path fill="none" d="M 41 167.5 L 590 167.5" stroke="#C0C0C0" stroke-width="1" opacity="1"></path><path fill="none" d="M 41 88.5 L 590 88.5" stroke="#C0C0C0" stroke-width="1" opacity="1"></path><path fill="none" d="M 41 9.5 L 590 9.5" stroke="#C0C0C0" stroke-width="1" opacity="1"></path></g><rect x="41" y="10" width="549" height="235" stroke="#026FC1" stroke-width="2" fill="none"></rect><g class="highcharts-axis"><path fill="none" d="M 132.5 245 L 132.5 255" stroke="#C0D0E0" stroke-width="1" opacity="1"></path><path fill="none" d="M 223.5 245 L 223.5 255" stroke="#C0D0E0" stroke-width="1" opacity="1"></path><path fill="none" d="M 315.5 245 L 315.5 255" stroke="#C0D0E0" stroke-width="1" opacity="1"></path><path fill="none" d="M 406.5 245 L 406.5 255" stroke="#C0D0E0" stroke-width="1" opacity="1"></path><path fill="none" d="M 498.5 245 L 498.5 255" stroke="#C0D0E0" stroke-width="1" opacity="1"></path><path fill="none" d="M 590.5 245 L 590.5 255" stroke="#C0D0E0" stroke-width="1" opacity="1"></path><path fill="none" d="M 40.5 245 L 40.5 255" stroke="#C0D0E0" stroke-width="1" opacity="1"></path><path fill="none" d="M 41 245.5 L 590 245.5" stroke="#C0D0E0" stroke-width="1"></path></g><g class="highcharts-axis"><path fill="none" d="M 41 245.5 L 31 245.5" stroke="#C0D0E0" stroke-width="1" opacity="1"></path><path fill="none" d="M 41 167.5 L 31 167.5" stroke="#C0D0E0" stroke-width="1" opacity="1"></path><path fill="none" d="M 41 88.5 L 31 88.5" stroke="#C0D0E0" stroke-width="1" opacity="1"></path><path fill="none" d="M 41 9.5 L 31 9.5" stroke="#C0D0E0" stroke-width="1" opacity="1"></path></g><g class="highcharts-series-group"><g class="highcharts-series highcharts-series-0" transform="translate(41,10) scale(1 1)" clip-path="url(#highcharts-6)"><rect x="23.5" y="232.5" width="44" height="3" stroke="#FFFFFF" stroke-width="1" fill="#75bbfd" rx="0" ry="0"></rect><rect x="114.5" y="184.5" width="44" height="51" stroke="#FFFFFF" stroke-width="1" fill="#75bbfd" rx="0" ry="0"></rect><rect x="206.5" y="229.5" width="44" height="6" stroke="#FFFFFF" stroke-width="1" fill="#75bbfd" rx="0" ry="0"></rect><rect x="297.5" y="217.5" width="44" height="18" stroke="#FFFFFF" stroke-width="1" fill="#75bbfd" rx="0" ry="0"></rect><rect x="389.5" y="198.5" width="44" height="37" stroke="#FFFFFF" stroke-width="1" fill="#75bbfd" rx="0" ry="0"></rect><rect x="480.5" y="26.5" width="44" height="209" stroke="#FFFFFF" stroke-width="1" fill="#75bbfd" rx="0" ry="0"></rect></g><g class="highcharts-markers highcharts-series-0" transform="translate(41,10) scale(1 1)" clip-path="none"></g><g class="highcharts-series highcharts-series-1" transform="translate(41,10) scale(1 1)" clip-path="url(#highcharts-6)"></g><g class="highcharts-markers highcharts-series-1" transform="translate(41,10) scale(1 1)" clip-path="none"></g></g><g class="highcharts-data-labels highcharts-series-0" transform="translate(41,10) scale(1 1)" opacity="1"><g style="cursor:pointer;" transform="translate(23,207)"><text x="5" style="font-size: 14px; font-weight: bold; font-family: 'arial', sans-serif; color: rgb(0, 0, 0); fill: rgb(0, 0, 0); text-rendering: geometricprecision; text-shadow: none;" y="19"><tspan>0.652</tspan></text></g><g style="cursor:pointer;" transform="translate(114,159)"><text x="5" style="font-size: 14px; font-weight: bold; font-family: 'arial', sans-serif; color: rgb(0, 0, 0); fill: rgb(0, 0, 0); text-rendering: geometricprecision; text-shadow: none;" y="19"><tspan>13.07</tspan></text></g><g style="cursor:pointer;" transform="translate(210,204)"><text x="5" style="font-size: 14px; font-weight: bold; font-family: 'arial', sans-serif; color: rgb(0, 0, 0); fill: rgb(0, 0, 0); text-rendering: geometricprecision; text-shadow: none;" y="19"><tspan>1.54</tspan></text></g><g style="cursor:pointer;" transform="translate(301,192)"><text x="5" style="font-size:14px;font-weight:bold;font-family:'arial', sans-serif;color:#000000;text-shadow:none;fill:#000000;text-rendering:geometricprecision;" y="19"><tspan>4.54</tspan></text></g><g style="cursor:pointer;" transform="translate(397,173)"><text x="5" style="font-size: 14px; font-weight: bold; font-family: 'arial', sans-serif; color: rgb(0, 0, 0); fill: rgb(0, 0, 0); text-rendering: geometricprecision; text-shadow: none;" y="19"><tspan>9.5</tspan></text></g><g style="cursor:pointer;" transform="translate(484,1)"><text x="5" style="font-size: 14px; font-weight: bold; font-family: 'arial', sans-serif; color: rgb(0, 0, 0); fill: rgb(0, 0, 0); text-rendering: geometricprecision; text-shadow: none;" y="19"><tspan>53.3</tspan></text></g></g><g class="highcharts-data-labels highcharts-series-1" transform="translate(41,10) scale(1 1)" opacity="1"></g><g class="highcharts-legend" transform="translate(260,360)"><g><g><g class="highcharts-legend-item" transform="translate(8,3)"></g></g></g></g><g class="highcharts-axis-labels highcharts-xaxis-labels"><text x="90.04983164553721" style="color:#000000;cursor:default;font-size:14px;font-family:'arial', sans-serif;text-transform:none;font-weight:normal;fill:#000000;width:400px;text-overflow:ellipsis;" text-anchor="end" transform="translate(0,0) rotate(-45 90.04983164553721 263)" y="263" opacity="1"><tspan>Dynamic analysis</tspan></text><text x="181.5498316455372" style="color:#000000;cursor:default;font-size:14px;font-family:'arial', sans-serif;text-transform:none;font-weight:normal;fill:#000000;width:400px;text-overflow:ellipsis;" text-anchor="end" transform="translate(0,0) rotate(-45 181.5498316455372 263)" y="263" opacity="1"><tspan>sysfilter</tspan></text><text x="273.0498316455372" style="color:#000000;cursor:default;font-size:14px;font-family:'arial', sans-serif;text-transform:none;font-weight:normal;fill:#000000;width:400px;text-overflow:ellipsis;" text-anchor="end" transform="translate(0,0) rotate(-45 273.0498316455372 263)" y="263" opacity="1"><tspan>Confine</tspan></text><text x="364.5498316455372" style="color:#000000;cursor:default;font-size:14px;font-family:'arial', sans-serif;text-transform:none;font-weight:normal;fill:#000000;width:400px;text-overflow:ellipsis;" text-anchor="end" transform="translate(0,0) rotate(-45 364.5498316455372 263)" y="263" opacity="1"><tspan>Sourcealyzer</tspan></text><text x="456.0498316455372" style="color:#000000;cursor:default;font-size:14px;font-family:'arial', sans-serif;text-transform:none;font-weight:normal;fill:#000000;width:400px;text-overflow:ellipsis;" text-anchor="end" transform="translate(0,0) rotate(-45 456.0498316455372 263)" y="263" opacity="1"><tspan>Binalyzer - syscalls</tspan></text><text x="547.5498316455372" style="color:#000000;cursor:default;font-size:14px;font-family:'arial', sans-serif;text-transform:none;font-weight:normal;fill:#000000;width:400px;text-overflow:ellipsis;" text-anchor="end" transform="translate(0,0) rotate(-45 547.5498316455372 263)" y="263" opacity="1"><tspan>Binalyzer - cfg</tspan></text></g><g class="highcharts-axis-labels highcharts-yaxis-labels"><text x="26" style="color:#000000;cursor:default;font-size:14px;font-family:'arial', sans-serif;text-transform:none;font-weight:normal;fill:#000000;width:188px;text-overflow:clip;" text-anchor="end" transform="translate(0,0)" y="251" opacity="1"><tspan>0</tspan></text><text x="26" style="color:#000000;cursor:default;font-size:14px;font-family:'arial', sans-serif;text-transform:none;font-weight:normal;fill:#000000;width:188px;text-overflow:clip;" text-anchor="end" transform="translate(0,0)" y="173" opacity="1"><tspan>20</tspan></text><text x="26" style="color:#000000;cursor:default;font-size:14px;font-family:'arial', sans-serif;text-transform:none;font-weight:normal;fill:#000000;width:188px;text-overflow:clip;" text-anchor="end" transform="translate(0,0)" y="94" opacity="1"><tspan>40</tspan></text><text x="26" style="color:#000000;cursor:default;font-size:14px;font-family:'arial', sans-serif;text-transform:none;font-weight:normal;fill:#000000;width:188px;text-overflow:clip;" text-anchor="end" transform="translate(0,0)" y="16" opacity="1"><tspan>60</tspan></text></g><g class="highcharts-tooltip" display="none" style="cursor:default;padding:0;pointer-events:none;white-space:nowrap;" transform="translate(0,0)"><path fill="none" d="M 3.5 0.5 L 13.5 0.5 C 16.5 0.5 16.5 0.5 16.5 3.5 L 16.5 13.5 C 16.5 16.5 16.5 16.5 13.5 16.5 L 3.5 16.5 C 0.5 16.5 0.5 16.5 0.5 13.5 L 0.5 3.5 C 0.5 0.5 0.5 0.5 3.5 0.5"  stroke="black" stroke-opacity="0.049999999999999996" stroke-width="5" transform="translate(1, 1)"></path><path fill="none" d="M 3.5 0.5 L 13.5 0.5 C 16.5 0.5 16.5 0.5 16.5 3.5 L 16.5 13.5 C 16.5 16.5 16.5 16.5 13.5 16.5 L 3.5 16.5 C 0.5 16.5 0.5 16.5 0.5 13.5 L 0.5 3.5 C 0.5 0.5 0.5 0.5 3.5 0.5"  stroke="black" stroke-opacity="0.09999999999999999" stroke-width="3" transform="translate(1, 1)"></path><path fill="none" d="M 3.5 0.5 L 13.5 0.5 C 16.5 0.5 16.5 0.5 16.5 3.5 L 16.5 13.5 C 16.5 16.5 16.5 16.5 13.5 16.5 L 3.5 16.5 C 0.5 16.5 0.5 16.5 0.5 13.5 L 0.5 3.5 C 0.5 0.5 0.5 0.5 3.5 0.5"  stroke="black" stroke-opacity="0.15" stroke-width="1" transform="translate(1, 1)"></path><path fill="rgb(255, 255, 255)" fill-opacity=" 0.85" d="M 3.5 0.5 L 13.5 0.5 C 16.5 0.5 16.5 0.5 16.5 3.5 L 16.5 13.5 C 16.5 16.5 16.5 16.5 13.5 16.5 L 3.5 16.5 C 0.5 16.5 0.5 16.5 0.5 13.5 L 0.5 3.5 C 0.5 0.5 0.5 0.5 3.5 0.5"></path><text x="8" style="font-size:12px;color:#000000;fill:#000000;" y="20"></text></g></svg>
