<svg xmlns:xlink="http://www.w3.org/1999/xlink" version="1.1" style="font-family:'lucida grande', 'lucida sans unicode', arial, helvetica, sans-serif;font-size:12px;" xmlns="http://www.w3.org/2000/svg" width="600" height="400"><desc>Created with Highcharts 4.2.7</desc><defs><clipPath id="highcharts-15"><rect x="1" y="1" width="496" height="191"></rect></clipPath></defs><rect x="92" y="10" width="498" height="193" fill="#ffffff"></rect><path fill="rgb(255, 255, 255)" fill-opacity=" .5" d="M 92 203.5 L 590 203.5 590 155.5 92 155.5"></path><path fill="rgb(255, 255, 255)" fill-opacity=" .5" d="M 92 107.5 L 590 107.5 590 58.5 92 58.5"></path><g class="highcharts-grid"></g><g class="highcharts-grid"><path fill="none" d="M 92 203.5 L 590 203.5" stroke="#C0C0C0" stroke-width="1" opacity="1"></path><path fill="none" d="M 92 155.5 L 590 155.5" stroke="#C0C0C0" stroke-width="1" opacity="1"></path><path fill="none" d="M 92 107.5 L 590 107.5" stroke="#C0C0C0" stroke-width="1" opacity="1"></path><path fill="none" d="M 92 58.5 L 590 58.5" stroke="#C0C0C0" stroke-width="1" opacity="1"></path><path fill="none" d="M 92 9.5 L 590 9.5" stroke="#C0C0C0" stroke-width="1" opacity="1"></path></g><rect x="92" y="10" width="498" height="193" stroke="#026FC1" stroke-width="2" fill="none"></rect><g class="highcharts-axis"><path fill="none" d="M 174.5 203 L 174.5 213" stroke="#C0D0E0" stroke-width="1" opacity="1"></path><path fill="none" d="M 257.5 203 L 257.5 213" stroke="#C0D0E0" stroke-width="1" opacity="1"></path><path fill="none" d="M 340.5 203 L 340.5 213" stroke="#C0D0E0" stroke-width="1" opacity="1"></path><path fill="none" d="M 423.5 203 L 423.5 213" stroke="#C0D0E0" stroke-width="1" opacity="1"></path><path fill="none" d="M 506.5 203 L 506.5 213" stroke="#C0D0E0" stroke-width="1" opacity="1"></path><path fill="none" d="M 590.5 203 L 590.5 213" stroke="#C0D0E0" stroke-width="1" opacity="1"></path><path fill="none" d="M 91.5 203 L 91.5 213" stroke="#C0D0E0" stroke-width="1" opacity="1"></path><path fill="none" d="M 92 203.5 L 590 203.5" stroke="#C0D0E0" stroke-width="1"></path></g><g class="highcharts-axis"><path fill="none" d="M 92 203.5 L 82 203.5" stroke="#C0D0E0" stroke-width="1" opacity="1"></path><path fill="none" d="M 92 155.5 L 82 155.5" stroke="#C0D0E0" stroke-width="1" opacity="1"></path><path fill="none" d="M 92 107.5 L 82 107.5" stroke="#C0D0E0" stroke-width="1" opacity="1"></path><path fill="none" d="M 92 58.5 L 82 58.5" stroke="#C0D0E0" stroke-width="1" opacity="1"></path><path fill="none" d="M 92 9.5 L 82 9.5" stroke="#C0D0E0" stroke-width="1" opacity="1"></path><text x="13.650001525878906" text-anchor="middle" transform="translate(0,0) rotate(270 33.650001525878906 106.5)" class=" highcharts-yaxis-title" style="color:#000000;font-size:20px;font-family:'arial', sans-serif;text-transform:none;font-weight:normal;fill:#000000;" y="106.5"><tspan>Blocked system call count</tspan></text></g><g class="highcharts-series-group"><g class="highcharts-series highcharts-series-0" transform="translate(92,10) scale(1 1)" clip-path="url(#highcharts-15)"><rect x="21.5" y="28.5" width="40" height="165" stroke="#FFFFFF" stroke-width="1" fill="#75bbfd" rx="0" ry="0"></rect><rect x="104.5" y="63.5" width="40" height="130" stroke="#FFFFFF" stroke-width="1" fill="#75bbfd" rx="0" ry="0"></rect><rect x="187.5" y="102.5" width="40" height="91" stroke="#FFFFFF" stroke-width="1" fill="#75bbfd" rx="0" ry="0"></rect><rect x="270.5" y="50.5" width="40" height="143" stroke="#FFFFFF" stroke-width="1" fill="#75bbfd" rx="0" ry="0"></rect><rect x="353.5" y="145.5" width="40" height="48" stroke="#FFFFFF" stroke-width="1" fill="#75bbfd" rx="0" ry="0"></rect><rect x="436.5" y="193.5" width="40" height="0" stroke="#FFFFFF" stroke-width="1" fill="#75bbfd" rx="0" ry="0"></rect></g><g class="highcharts-markers highcharts-series-0" transform="translate(92,10) scale(1 1)" clip-path="none"></g><g class="highcharts-series highcharts-series-1" transform="translate(92,10) scale(1 1)" clip-path="url(#highcharts-15)"></g><g class="highcharts-markers highcharts-series-1" transform="translate(92,10) scale(1 1)" clip-path="none"></g></g><g class="highcharts-data-labels highcharts-series-0" transform="translate(92,10) scale(1 1)" opacity="1"><g style="cursor:pointer;" transform="translate(20,-5)"><text x="5" style="font-size:20px;font-weight:bold;font-family:'arial', sans-serif;color:#000000;text-shadow:none;fill:#000000;text-rendering:geometricprecision;" y="23"><tspan>341</tspan></text></g><g style="cursor:pointer;" transform="translate(103,30)"><text x="5" style="font-size:20px;font-weight:bold;font-family:'arial', sans-serif;color:#000000;text-shadow:none;fill:#000000;text-rendering:geometricprecision;" y="23"><tspan>269</tspan></text></g><g style="cursor:pointer;" transform="translate(186,69)"><text x="5" style="font-size:20px;font-weight:bold;font-family:'arial', sans-serif;color:#000000;text-shadow:none;fill:#000000;text-rendering:geometricprecision;" y="23"><tspan>188</tspan></text></g><g style="cursor:pointer;" transform="translate(269,17)"><text x="5" style="font-size:20px;font-weight:bold;font-family:'arial', sans-serif;color:#000000;text-shadow:none;fill:#000000;text-rendering:geometricprecision;" y="23"><tspan>296</tspan></text></g><g style="cursor:pointer;" transform="translate(357,113)"><text x="5" style="font-size: 20px; font-weight: bold; font-family: 'arial', sans-serif; color: rgb(0, 0, 0); fill: rgb(0, 0, 0); text-rendering: geometricprecision; text-shadow: none;" y="23"><tspan>99</tspan></text></g><g style="cursor:pointer;" transform="translate(446,160)"><text x="5" style="font-size:20px;font-weight:bold;font-family:'arial', sans-serif;color:#000000;text-shadow:none;fill:#000000;text-rendering:geometricprecision;" y="23"><tspan>0</tspan></text></g></g><g class="highcharts-data-labels highcharts-series-1" transform="translate(92,10) scale(1 1)" opacity="1"></g><g class="highcharts-legend" transform="translate(260,360)"><g><g><g class="highcharts-legend-item" transform="translate(8,3)"></g></g></g></g><g class="highcharts-axis-labels highcharts-xaxis-labels"><text x="137.7426406871193" style="color:#000000;cursor:default;font-size:20px;font-family:'arial', sans-serif;text-transform:none;font-weight:normal;fill:#000000;width:400px;text-overflow:ellipsis;" text-anchor="end" transform="translate(0,0) rotate(-45 137.7426406871193 224)" y="224" opacity="1"><tspan>Dynamic analysis</tspan></text><text x="220.74264068711926" style="color:#000000;cursor:default;font-size:20px;font-family:'arial', sans-serif;text-transform:none;font-weight:normal;fill:#000000;width:400px;text-overflow:ellipsis;" text-anchor="end" transform="translate(0,0) rotate(-45 220.74264068711926 224)" y="224" opacity="1"><tspan>sysfilter</tspan></text><text x="303.74264068711926" style="color:#000000;cursor:default;font-size:20px;font-family:'arial', sans-serif;text-transform:none;font-weight:normal;fill:#000000;width:400px;text-overflow:ellipsis;" text-anchor="end" transform="translate(0,0) rotate(-45 303.74264068711926 224)" y="224" opacity="1"><tspan>Confine</tspan></text><text x="386.74264068711926" style="color:#000000;cursor:default;font-size:20px;font-family:'arial', sans-serif;text-transform:none;font-weight:normal;fill:#000000;width:400px;text-overflow:ellipsis;" text-anchor="end" transform="translate(0,0) rotate(-45 386.74264068711926 224)" y="224" opacity="1"><tspan>Sourcealyzer</tspan></text><text x="469.74264068711926" style="color:#000000;cursor:default;font-size:20px;font-family:'arial', sans-serif;text-transform:none;font-weight:normal;fill:#000000;width:400px;text-overflow:ellipsis;" text-anchor="end" transform="translate(0,0) rotate(-45 469.74264068711926 224)" y="224" opacity="1"><tspan>Binalyzer - syscalls</tspan></text><text x="552.7426406871193" style="color:#000000;cursor:default;font-size:20px;font-family:'arial', sans-serif;text-transform:none;font-weight:normal;fill:#000000;width:400px;text-overflow:ellipsis;" text-anchor="end" transform="translate(0,0) rotate(-45 552.7426406871193 224)" y="224" opacity="1"><tspan>Binalyzer - cfg</tspan></text></g><g class="highcharts-axis-labels highcharts-yaxis-labels"><text x="77" style="color:#000000;cursor:default;font-size:20px;font-family:'arial', sans-serif;text-transform:none;font-weight:normal;fill:#000000;width:188px;text-overflow:clip;" text-anchor="end" transform="translate(0,0)" y="209" opacity="1"><tspan>0</tspan></text><text x="77" style="color:#000000;cursor:default;font-size:20px;font-family:'arial', sans-serif;text-transform:none;font-weight:normal;fill:#000000;width:188px;text-overflow:clip;" text-anchor="end" transform="translate(0,0)" y="161" opacity="1"><tspan>100</tspan></text><text x="77" style="color:#000000;cursor:default;font-size:20px;font-family:'arial', sans-serif;text-transform:none;font-weight:normal;fill:#000000;width:188px;text-overflow:clip;" text-anchor="end" transform="translate(0,0)" y="113" opacity="1"><tspan>200</tspan></text><text x="77" style="color:#000000;cursor:default;font-size:20px;font-family:'arial', sans-serif;text-transform:none;font-weight:normal;fill:#000000;width:188px;text-overflow:clip;" text-anchor="end" transform="translate(0,0)" y="64" opacity="1"><tspan>300</tspan></text><text x="77" style="color:#000000;cursor:default;font-size:20px;font-family:'arial', sans-serif;text-transform:none;font-weight:normal;fill:#000000;width:188px;text-overflow:clip;" text-anchor="end" transform="translate(0,0)" y="16" opacity="1"><tspan>400</tspan></text></g><g class="highcharts-tooltip" display="none" style="cursor:default;padding:0;pointer-events:none;white-space:nowrap;" transform="translate(0,0)"><path fill="none" d="M 3.5 0.5 L 13.5 0.5 C 16.5 0.5 16.5 0.5 16.5 3.5 L 16.5 13.5 C 16.5 16.5 16.5 16.5 13.5 16.5 L 3.5 16.5 C 0.5 16.5 0.5 16.5 0.5 13.5 L 0.5 3.5 C 0.5 0.5 0.5 0.5 3.5 0.5"  stroke="black" stroke-opacity="0.049999999999999996" stroke-width="5" transform="translate(1, 1)"></path><path fill="none" d="M 3.5 0.5 L 13.5 0.5 C 16.5 0.5 16.5 0.5 16.5 3.5 L 16.5 13.5 C 16.5 16.5 16.5 16.5 13.5 16.5 L 3.5 16.5 C 0.5 16.5 0.5 16.5 0.5 13.5 L 0.5 3.5 C 0.5 0.5 0.5 0.5 3.5 0.5"  stroke="black" stroke-opacity="0.09999999999999999" stroke-width="3" transform="translate(1, 1)"></path><path fill="none" d="M 3.5 0.5 L 13.5 0.5 C 16.5 0.5 16.5 0.5 16.5 3.5 L 16.5 13.5 C 16.5 16.5 16.5 16.5 13.5 16.5 L 3.5 16.5 C 0.5 16.5 0.5 16.5 0.5 13.5 L 0.5 3.5 C 0.5 0.5 0.5 0.5 3.5 0.5"  stroke="black" stroke-opacity="0.15" stroke-width="1" transform="translate(1, 1)"></path><path fill="rgb(255, 255, 255)" fill-opacity=" 0.85" d="M 3.5 0.5 L 13.5 0.5 C 16.5 0.5 16.5 0.5 16.5 3.5 L 16.5 13.5 C 16.5 16.5 16.5 16.5 13.5 16.5 L 3.5 16.5 C 0.5 16.5 0.5 16.5 0.5 13.5 L 0.5 3.5 C 0.5 0.5 0.5 0.5 3.5 0.5"></path><text x="8" style="font-size:12px;color:#000000;fill:#000000;" y="20"></text></g></svg>
